<svg width="20" height="20" viewBox="0 0 20 20" fill="none" xmlns="http://www.w3.org/2000/svg">
<path d="M3.22757 14.1828L2.2246 8.19984C2.07295 7.29523 1.99714 6.84293 2.23994 6.54647C2.48275 6.25 2.929 6.25 3.82153 6.25H16.1788C17.0713 6.25 17.5176 6.25 17.7604 6.54647C18.0032 6.84293 17.9273 7.29523 17.7757 8.19984L16.7727 14.1828C16.4403 16.1659 16.2741 17.1574 15.5954 17.7454C14.9168 18.3333 13.9385 18.3333 11.982 18.3333H8.01835C6.0618 18.3333 5.08352 18.3333 4.40487 17.7454C3.72622 17.1574 3.56 16.1659 3.22757 14.1828Z" fill="#F26509" stroke="white" stroke-width="1.5"/>
<path d="M14.5832 6.24996C14.5832 3.71865 12.5312 1.66663 9.99984 1.66663C7.46853 1.66663 5.4165 3.71865 5.4165 6.24996" stroke="white" stroke-width="1.5"/>
</svg>
