<svg width="24" height="25" viewBox="0 0 24 25" fill="none" xmlns="http://www.w3.org/2000/svg">
<path d="M12 22.5C17.5228 22.5 22 18.0228 22 12.5C22 6.97715 17.5228 2.5 12 2.5C6.47715 2.5 2 6.97715 2 12.5C2 18.0228 6.47715 22.5 12 22.5Z" stroke="white" stroke-width="1.5"/>
<path d="M7.5 12.5685C8.59944 12.1998 9.77639 12 11 12C13.0238 12 14.9199 12.5465 16.5488 13.5M18 10.5C16.1509 9.2383 13.9122 8.5 11.5 8.5C9.90307 8.5 8.38216 8.82358 7 9.40839M15.129 16.5C13.8927 15.8609 12.4894 15.5 11.0018 15.5C10.1819 15.5 9.38762 15.6096 8.63281 15.815" stroke="white" stroke-width="1.5" stroke-linecap="round"/>
</svg>
